<svg width="345" height="306" viewBox="0 0 345 306" fill="none" xmlns="http://www.w3.org/2000/svg">
<g clip-path="url(#clip0_18_128)">
<path d="M243.89 175.719C241.889 175.528 239.887 175.242 237.981 174.956C239.982 175.242 241.984 175.433 243.89 175.719Z" fill="white"/>
<path d="M172.5 135.497C156.964 105.283 114.645 48.9529 75.2812 21.217C37.6328 -5.47052 23.2406 -0.800209 13.8047 3.39354C2.93906 8.34979 0.9375 25.1248 0.9375 34.942C0.9375 44.7592 6.37031 115.767 9.89688 127.586C21.525 166.664 62.9859 179.912 101.111 175.719C103.017 175.433 105.019 175.147 107.02 174.956C105.019 175.242 103.113 175.528 101.111 175.719C45.1625 184.011 -4.49531 204.408 60.6984 276.94C132.373 351.189 158.87 261.023 172.5 215.369C186.13 261.023 201.856 347.948 283.062 276.94C344.062 215.369 299.837 184.011 243.889 175.719C241.887 175.528 239.886 175.242 237.98 174.956C239.981 175.242 241.983 175.433 243.889 175.719C282.014 180.008 323.475 166.759 335.103 127.586C338.63 115.767 344.062 44.8545 344.062 34.942C344.062 25.0295 342.061 8.34979 331.195 3.39354C321.759 -0.895521 307.367 -5.47052 269.719 21.1217C230.355 48.8576 188.036 105.187 172.5 135.401V135.497Z" fill="white"/>
</g>
<defs>
<clipPath id="clip0_18_128">
<rect width="343.125" height="305" fill="white" transform="translate(0.9375 0.152496)"/>
</clipPath>
</defs>
</svg>
