<svg width="34" height="34" viewBox="0 0 34 34" fill="none" xmlns="http://www.w3.org/2000/svg">
<path d="M10.625 0C14.1458 0 17 2.85419 17 6.375C17 2.85419 19.8542 9.27728e-06 23.375 0H27.625C31.1458 0 34 2.85419 34 6.375V10.0938C34 11.5608 32.8108 12.75 31.3438 12.75C32.8108 12.75 34 13.9392 34 15.4062V27.625C34 31.1458 31.1458 34 27.625 34H23.375C19.8542 34 17 31.1458 17 27.625V31.0781C17 32.6918 15.6918 34 14.0781 34H11.4219C9.80817 34 8.5 32.6918 8.5 31.0781C8.5 32.6918 7.19183 34 5.57812 34H2.92188C1.30817 34 0 32.6918 0 31.0781C0 21.6927 0.000173862 12.3073 0 2.92188C1.24984e-05 1.30818 1.30817 6.57139e-06 2.92188 0H10.625ZM2.92188 2.125C2.48179 2.12501 2.125 2.47006 2.125 2.91016C2.12499 6.83934 2.125 24.2794 2.125 26.8281C2.125 27.2682 2.48177 27.625 2.92188 27.625H5.57812C6.01823 27.625 6.375 27.2682 6.375 26.8281V7.17188C6.375 6.73177 6.73177 6.375 7.17188 6.375H9.82812C10.2682 6.375 10.625 6.73177 10.625 7.17188V26.8281C10.625 27.2682 10.9818 27.625 11.4219 27.625H14.0781C14.5182 27.625 14.875 27.2682 14.875 26.8281V6.375C14.875 4.02779 12.9722 2.125 10.625 2.125H2.92188ZM23.375 2.125C21.0278 2.125 19.125 4.02779 19.125 6.375V23.375C19.125 25.7222 21.0278 27.625 23.375 27.625H27.625C29.9722 27.625 31.875 25.7222 31.875 23.375V15.4062C31.875 15.1128 31.6372 14.875 31.3438 14.875H26.0312C25.7378 14.875 25.5 15.1128 25.5 15.4062V18.5938C25.5 18.8872 25.7378 19.125 26.0312 19.125H27.0938C27.3872 19.125 27.625 19.3628 27.625 19.6562V22.5781C27.625 23.0182 27.2682 23.375 26.8281 23.375H24.1719C23.7318 23.375 23.375 23.0182 23.375 22.5781V7.17188C23.375 6.73177 23.7318 6.375 24.1719 6.375H26.8281C27.2682 6.375 27.625 6.73177 27.625 7.17188V10.0938C27.625 10.3872 27.8628 10.625 28.1562 10.625H31.3438C31.6372 10.625 31.875 10.3872 31.875 10.0938V6.375C31.875 4.02779 29.9722 2.125 27.625 2.125H23.375Z" fill="white"/>
</svg>
