<svg width="260" height="113" viewBox="0 0 260 113" fill="none" xmlns="http://www.w3.org/2000/svg">
<path fill-rule="evenodd" clip-rule="evenodd" d="M135.521 109.553L135.538 109.56C135.719 111.403 137.273 112.844 139.164 112.844H145.152L145.152 112.844H172.238L172.239 112.844H224.378C224.63 112.844 224.876 112.818 225.114 112.769C225.841 112.818 226.574 112.844 227.312 112.844C244.919 112.844 259.192 98.5707 259.192 80.9643C259.192 63.3578 244.919 49.085 227.312 49.085C223.083 49.085 219.046 49.9087 215.353 51.4044C212.318 22.7953 188.109 0.50708 158.695 0.50708C150.443 0.50708 142.601 2.2614 135.521 5.41744V89.9427L135.52 89.9714V109.2L135.521 109.229V109.553ZM1.93013 68.7864L0.108459 82.8538H6.28191L4.05542 68.7864C3.82183 67.6185 2.1432 67.6145 1.93013 68.7864ZM1.93013 97.1235L0.108459 83.0562H6.28191L4.05542 97.1235C3.82183 98.2915 2.1432 98.2954 1.93013 97.1235ZM8.81275 82.7636L11.2018 60.2023C11.4383 58.6118 13.7296 58.6154 13.9891 60.2023L16.9091 82.7636H8.81275ZM8.81275 82.8858L11.2018 105.447C11.4383 107.038 13.7296 107.034 13.9891 105.447L16.9091 82.8858H8.81275ZM21.2633 55.7589L18.9339 82.6422H26.8278L23.9809 55.7589C23.7677 54.1663 21.4573 54.1639 21.2633 55.7589ZM21.2633 109.71L18.9339 82.8266H26.8278L23.9809 109.71C23.7677 111.302 21.4573 111.305 21.2633 109.71ZM29.0531 82.5958L31.4421 54.5809C31.6384 52.9418 34.0138 52.9442 34.2294 54.5809L37.1494 82.5958H29.0531ZM29.0531 82.7965L31.4421 110.811C31.6384 112.451 34.0138 112.448 34.2294 110.811L37.1494 82.7965H29.0531ZM41.9682 56.3472L39.5791 83.485H47.6754L44.7554 56.3472C44.5338 54.7172 42.1699 54.7146 41.9682 56.3472ZM41.9682 110.811L39.5791 83.6731H47.6754L44.7554 110.811C44.5338 112.441 42.1699 112.443 41.9682 110.811ZM49.9015 83.2921L52.2906 39.6398C52.4223 37.9255 54.9331 37.9266 55.0779 39.6398L57.9979 83.2921H49.9015ZM49.9015 83.4946L52.2906 111.194C52.4888 112.831 54.8602 112.829 55.0779 111.194L57.9979 83.4946H49.9015ZM62.1469 30.16L60.4297 83.0898H60.4264L60.4286 83.1249L60.4264 83.1909H60.4326L62.1469 111.288C63.0209 112.811 65.1554 112.974 66.2498 111.6L66.4987 111.288L68.5155 83.1909H68.5228L68.5202 83.1249L68.5228 83.0898H68.5189L66.4987 30.16L66.4042 29.937C65.5776 27.9862 62.7651 28.1335 62.1469 30.16ZM70.9527 83.0895L72.6731 25.2376C73.2565 23.1517 76.1595 23.0097 76.9437 25.0286L77.0249 25.2376L79.049 83.0895H70.9527ZM70.8575 83.279L72.578 111.477C73.452 113 75.5865 113.163 76.6809 111.79L76.9298 111.477L78.9539 83.279H70.8575ZM83.3991 23.4184L81.6787 83.0896H89.775L87.7509 23.4184L87.6741 23.2144C86.905 21.172 83.9702 21.3121 83.3991 23.4184ZM83.3991 111.49L81.6787 83.2919H89.775L87.7509 111.49L87.5021 111.802C86.4076 113.176 84.2731 113.013 83.3991 111.49ZM92.2263 83.0896L94.1325 24.6919C94.8202 22.4514 97.9291 22.2878 98.8483 24.4437L98.9541 24.6919L101.197 83.0896H92.2263ZM92.2043 83.292L94.1105 111.49C95.1207 113.079 97.3725 113.257 98.6189 111.845L98.9321 111.49L101.175 83.292H92.2043ZM104.826 26.693L102.933 83.0896H111.839L109.613 26.693L109.502 26.4416C108.575 24.326 105.521 24.4901 104.826 26.693ZM104.745 111.427L102.839 83.229H111.809L109.566 111.427L109.253 111.782C108.007 113.194 105.755 113.016 104.745 111.427ZM113.662 83.0896L115.597 16.1414C116.241 13.7738 119.54 13.6161 120.406 15.9114L120.493 16.1414L122.77 83.0896H113.662ZM113.567 83.1823L115.473 111.381C116.483 112.97 118.735 113.147 119.981 111.735L120.295 111.381L122.537 83.1823H113.567ZM126.367 10.1173L124.202 82.887H134.392L131.844 10.1173L131.742 9.85417C130.755 7.31367 127.102 7.49252 126.367 10.1173ZM126.318 111.288L124.185 83.0895H134.221L131.712 111.288L131.314 111.691C129.885 113.138 127.496 112.945 126.318 111.288Z" fill="white"/>
</svg>
