<svg width="66" height="47" viewBox="0 0 66 47" fill="none" xmlns="http://www.w3.org/2000/svg">
<path d="M33.0002 0C33.0907 6.7171e-06 53.6503 0.00362194 58.7844 1.3877C61.6258 2.1523 63.8598 4.39657 64.6203 7.25293C65.9948 12.425 66.0002 23.2227 66.0002 23.2227C66.0002 23.3013 65.9952 34.0382 64.6203 39.1914C63.8598 42.0477 61.6258 44.2931 58.7844 45.0576C53.6499 46.4417 33.0907 46.4443 33.0002 46.4443C33.0002 46.4443 12.3603 46.4449 7.21503 45.0576C4.37359 44.2931 2.14068 42.0477 1.38007 39.1914C0.0052073 34.0382 0.000201581 23.3013 0.000183105 23.2227C0.000183105 23.2227 9.91821e-05 12.425 1.38007 7.25293C2.14068 4.3966 4.37364 2.15233 7.21503 1.3877C12.3601 0.000479221 33.0002 0 33.0002 0ZM26.3937 33.001L43.5402 23.1025L26.3937 13.2031V33.001Z" fill="white"/>
</svg>
